<?xml version="1.0" encoding="UTF-8" standalone="no"?>
<!-- Created with Inkscape (http://www.inkscape.org/) -->

<svg
   xmlns:dc="http://purl.org/dc/elements/1.1/"
   xmlns:cc="http://creativecommons.org/ns#"
   xmlns:rdf="http://www.w3.org/1999/02/22-rdf-syntax-ns#"
   xmlns:svg="http://www.w3.org/2000/svg"
   xmlns="http://www.w3.org/2000/svg"
   xmlns:sodipodi="http://sodipodi.sourceforge.net/DTD/sodipodi-0.dtd"
   xmlns:inkscape="http://www.inkscape.org/namespaces/inkscape"
   width="297mm"
   height="210mm"
   viewBox="0 0 297 210"
   version="1.1"
   id="svg8"
   inkscape:version="0.92.4 (5da689c313, 2019-01-14)"
   sodipodi:docname="my-nz20.svg"
   inkscape:export-filename="/home/telfaralex/repos/masters-thesis/pictures/drawings/my-nz20.png"
   inkscape:export-xdpi="96"
   inkscape:export-ydpi="96">
  <defs
     id="defs2" />
  <sodipodi:namedview
     id="base"
     pagecolor="#ffffff"
     bordercolor="#666666"
     borderopacity="1.0"
     inkscape:pageopacity="0.0"
     inkscape:pageshadow="2"
     inkscape:zoom="0.98994949"
     inkscape:cx="500.03707"
     inkscape:cy="438.78169"
     inkscape:document-units="mm"
     inkscape:current-layer="layer1"
     showgrid="false"
     inkscape:window-width="1920"
     inkscape:window-height="1015"
     inkscape:window-x="0"
     inkscape:window-y="0"
     inkscape:window-maximized="1" />
  <metadata
     id="metadata5">
    <rdf:RDF>
      <cc:Work
         rdf:about="">
        <dc:format>image/svg+xml</dc:format>
        <dc:type
           rdf:resource="http://purl.org/dc/dcmitype/StillImage" />
        <dc:title></dc:title>
      </cc:Work>
    </rdf:RDF>
  </metadata>
  <g
     inkscape:label="Layer 1"
     inkscape:groupmode="layer"
     id="layer1"
     transform="translate(0,-87)">
    <rect
       style="opacity:1;fill:#e0e4bb;fill-opacity:1;stroke:#000000;stroke-width:0;stroke-miterlimit:4;stroke-dasharray:none;stroke-opacity:1"
       id="rect1271"
       width="169.98341"
       height="87.397125"
       x="48.643055"
       y="139.57825" />
    <flowRoot
       xml:space="preserve"
       id="flowRoot1273"
       style="font-style:normal;font-weight:normal;font-size:40px;line-height:1.25;font-family:sans-serif;letter-spacing:0px;word-spacing:0px;fill:#059500;fill-opacity:1;stroke:none"
       transform="matrix(0.20931001,0,0,0.20568856,-75.794825,128.00273)"><flowRegion
         id="flowRegion1275"
         style="fill:#059500;fill-opacity:1"><rect
           id="rect1277"
           width="293.95438"
           height="236.3757"
           x="737.41138"
           y="296.70575"
           style="fill:#059500;fill-opacity:1" /></flowRegion><flowPara
         id="flowPara1279"
         style="font-size:192px;fill:#059500;fill-opacity:1">20</flowPara></flowRoot>    <flowRoot
       xml:space="preserve"
       id="flowRoot1273-3"
       style="font-style:normal;font-weight:normal;font-size:40px;line-height:1.25;font-family:sans-serif;letter-spacing:0px;word-spacing:0px;fill:#ffffff;fill-opacity:1;stroke:none"
       transform="matrix(0,-0.16754795,0.17624118,0,-2.9619989,311.24372)"><flowRegion
         id="flowRegion1275-6"
         style="fill:#ffffff;fill-opacity:1"><rect
           id="rect1277-7"
           width="293.95438"
           height="236.3757"
           x="737.41138"
           y="296.70575"
           style="fill:#ffffff;fill-opacity:1" /></flowRegion><flowPara
         id="flowPara1279-5"
         style="font-size:192px;fill:#ffffff;fill-opacity:1">20</flowPara></flowRoot>    <path
       style="opacity:1;fill:#000000;fill-opacity:1;stroke:#000000;stroke-width:0;stroke-miterlimit:4;stroke-dasharray:none;stroke-opacity:1"
       id="path1339"
       d="m 91.151071,159.97981 c 0.14841,-0.3496 -0.004,-0.7043 -0.14691,-1.04352 -0.10312,-0.24578 -0.21839,-0.48933 -0.3261,-0.73427 -0.0979,-0.29401 -0.23822,-0.61846 -0.0348,-0.91093 0.23794,-0.34211 0.956597,-0.52239 1.379527,-0.656 0.152177,-0.0481 0.329667,-0.0495 0.494507,-0.0742 1.156701,-0.0674 2.289455,0.15022 3.251539,0.56905 0.21648,0.0942 0.41418,0.20559 0.621267,0.30838 1.121524,0.66723 1.940851,1.51092 2.826155,2.30685 0.22565,0.15495 0.414237,0.43201 0.761357,0.50214 0.221837,0.0448 0.484557,-0.0899 0.433627,-0.0726 -0.17444,0.0592 -0.35062,0.11611 -0.525917,0.17417 0.667427,-0.34242 1.393497,-0.62743 2.183847,-0.83936 0.25595,-0.0686 0.71402,-0.0463 0.97211,-0.0443 1.23087,0.12019 2.37324,0.47099 3.5276,0.75913 0.27861,0.059 0.51105,0.12814 0.808,0.12451 0.0995,-0.001 0.37086,-0.0784 0.29267,-0.0383 -1.07868,0.55261 -0.47949,0.12272 -0.39288,0.01 0.0532,-0.0695 0.0814,-0.14604 0.12206,-0.21906 0.12646,-0.28746 0.12006,-0.62892 0.42451,-0.87199 0.30025,-0.23972 1.13263,-0.44573 1.36083,-0.5236 0.93882,-0.11443 1.90567,-0.0697 2.83589,0.055 0.68639,0.11948 1.15832,0.47141 1.67976,0.76138 0.12507,0.0553 0.26487,0.1323 0.42336,0.1484 0.32224,0.0328 0.99936,-0.2492 1.27074,-0.34127 1.12727,-0.39697 2.37775,-0.59487 3.64473,-0.68917 0.34008,-0.0253 0.68229,-0.0365 1.02343,-0.0548 2.02825,-0.0694 4.06046,-0.0551 6.09068,-0.0477 1.21777,0.004 2.43644,0.0299 3.65094,-0.04 0.11408,-0.009 0.22817,-0.0189 0.34226,-0.0283 0,0 -0.74003,0.35872 -0.74003,0.35872 v 0 c -0.11371,0.008 -0.22742,0.0167 -0.34114,0.025 -1.2124,0.0614 -2.42775,0.0356 -3.6426,0.0295 -2.02683,-0.0101 -4.05603,-0.0262 -6.08057,0.0496 -0.34087,0.0197 -0.6829,0.0324 -1.02262,0.0592 -1.26881,0.10033 -2.51431,0.30982 -3.64019,0.71139 -0.35233,0.11923 -0.90122,0.37126 -1.32697,0.30261 -0.1665,-0.0269 -0.30143,-0.10292 -0.43615,-0.16523 -0.50829,-0.28608 -0.97406,-0.62741 -1.65074,-0.73714 -0.92104,-0.11887 -1.88365,-0.16492 -2.806,-0.0265 0.15298,-0.0708 0.30182,-0.14562 0.45892,-0.21253 0.0872,-0.0371 -0.17705,0.074 -0.24889,0.12308 -0.33126,0.22646 -0.32158,0.57588 -0.43542,0.85953 -0.0376,0.0771 -0.1506,0.36059 -0.27315,0.42179 -0.9293,0.46407 -1.1815,0.51725 -2.15037,0.28796 -1.14393,-0.2896 -2.28219,-0.63941 -3.50995,-0.74023 -0.16766,0.002 -0.33616,-0.006 -0.50297,0.005 -0.15237,0.0101 -0.40389,0.15292 -0.45073,0.058 -0.0492,-0.0997 0.34695,-0.0869 0.38636,-0.18841 0.0344,-0.0885 -0.24774,0.0863 -0.36585,0.13559 -0.11274,0.0471 -0.21833,0.10106 -0.32566,0.15322 -0.10013,0.0487 -0.19776,0.0995 -0.29665,0.14919 -0.35384,0.13948 -0.69883,0.28895 -1.061527,0.41843 -0.0772,0.0276 -0.16459,0.0459 -0.252287,0.0506 -0.46962,0.0252 -0.751397,-0.36626 -1.000407,-0.5504 -0.870744,-0.79527 -1.686348,-1.63412 -2.806042,-2.29409 -0.20521,-0.1006 -0.400997,-0.20992 -0.615637,-0.30182 -0.954654,-0.40878 -2.079478,-0.61608 -3.219072,-0.52792 -0.16046,0.0294 -0.397857,0.18212 -0.481367,0.0882 -0.081,-0.091 0.252307,-0.18851 0.410717,-0.16766 0.12427,0.0163 -0.18476,0.1168 -0.244647,0.18952 -0.22846,0.27739 -0.0845,0.59965 0.006,0.88406 0.107717,0.24539 0.222907,0.4894 0.328577,0.73517 0.14917,0.34696 0.311887,0.7088 0.18455,1.06974 0,0 -0.842037,0.25733 -0.842037,0.25733 z"
       inkscape:connector-curvature="0" />
    <path
       style="opacity:1;fill:#000000;fill-opacity:1;stroke:#000000;stroke-width:0;stroke-miterlimit:4;stroke-dasharray:none;stroke-opacity:1"
       id="path1343"
       d="m 95.906864,162.60165 c -1.038254,0.0207 -2.079508,0.10617 -3.081202,0.29035 -0.251517,0.0462 -0.495937,0.10753 -0.743897,0.16129 -0.224127,0.065 -0.447597,0.13103 -0.672384,0.1951 -0.0695,0.0198 0.254997,-0.10015 0.206377,-0.0623 -0.123627,0.0963 -0.307177,0.15337 -0.440057,0.24428 -0.20434,0.1398 -0.37148,0.31393 -0.43776,0.50429 -0.0244,0.07 -0.009,0.14337 -0.0134,0.21505 0.0387,0.0563 0.0572,0.12056 0.116,0.16892 0.39026,0.32096 1.234254,0.16785 1.729844,0.0907 0.609944,-0.11476 1.175561,-0.30357 1.727168,-0.50445 0.13543,-0.0493 0.525337,-0.21356 0.40411,-0.15049 -0.12283,0.0639 -0.27265,0.10201 -0.40898,0.15302 0.491457,-0.12319 1.301514,-0.62507 1.983871,-0.5407 0.234277,0.029 0.334127,0.089 0.533127,0.17145 0.592564,0.2662 1.044714,0.66816 1.709318,0.86798 0.1209,0.0363 0.253,0.0542 0.3795,0.0813 -0.1277,0.23501 0.945074,-0.21946 0.763864,-0.0985 -0.1086,0.0725 -0.330577,0.20911 -0.423327,0.12784 -0.0923,-0.0808 0.22167,-0.14129 0.318047,-0.22008 0.20308,-0.16602 0.30561,-0.3115 0.457007,-0.49679 0.11436,-0.13746 0.21793,-0.28741 0.38899,-0.40174 0.3003,-0.20069 1.29416,-0.45935 1.38783,-0.48047 0.17884,-0.0403 0.84652,0.0313 0.9879,0.0431 1.02398,0.0867 2.00698,0.34602 3.0442,0.37315 0.16733,0.004 0.3348,-0.006 0.5022,-0.009 -0.27447,0.19691 1.03736,-0.26555 0.80075,-0.16765 -0.1612,0.0667 -0.32388,0.14591 -0.51199,0.16754 -0.0949,0.0109 0.14011,-0.0862 0.20546,-0.13229 0.0436,-0.0307 0.23881,-0.18917 0.28784,-0.22871 0.7999,-0.54207 1.40481,-0.51042 2.39428,-0.49853 0.83279,0.0193 1.6658,0.0613 2.49545,0.11307 1.19564,0.11063 2.39722,0.17844 3.60249,0.22289 1.07445,0.002 2.22682,0.11711 3.26962,-0.1134 0.10929,-0.0242 0.20938,-0.0633 0.31407,-0.0949 -0.20575,0.0643 -0.39611,0.15613 -0.61724,0.19293 -0.0503,0.008 0.0487,-0.0638 0.0432,-0.0974 -0.006,-0.0362 -0.0385,-0.0702 -0.0753,-0.0976 -0.19935,-0.14853 -0.52185,-0.17677 -0.79726,-0.21457 -1.14264,-0.0751 -2.26135,0.13153 -3.34455,0.34284 -0.68585,0.15168 -1.39074,0.28355 -2.03854,0.49887 -0.0694,0.0231 -0.26969,0.10201 -0.20148,0.0774 0.25556,-0.0922 0.50906,-0.18678 0.76358,-0.28018 0.0521,-0.0137 0.10115,-0.0339 0.15623,-0.041 0.34967,-0.0451 0.70779,-0.0562 1.0604,-0.0903 0.88999,-0.0861 1.77655,-0.18619 2.66647,-0.27286 1.29631,-0.12017 2.61724,-0.21166 3.9258,-0.11727 0.20271,0.0146 0.40323,0.0401 0.60484,0.0602 1.04745,0.12944 2.05198,0.36767 3.10076,0.49122 0.70263,0.0806 1.41704,0.0619 2.12521,0.0927 0.74175,0.056 1.48619,0.0228 2.2235,-0.0409 1.30429,-0.14157 2.58384,-0.36235 3.88066,-0.52941 0.9108,-0.095 1.85209,-0.21377 2.7699,-0.0945 0.18552,0.0365 0.10457,0.0215 0.24232,0.0462 0,0 -0.76981,0.3428 -0.76981,0.3428 v 0 c -0.13236,-0.0262 -0.0549,-0.0113 -0.23285,-0.0436 -0.90776,-0.10802 -1.83592,0.011 -2.73417,0.10609 -1.29906,0.16947 -2.58158,0.39159 -3.89011,0.52892 -0.74422,0.0603 -1.49366,0.0913 -2.24158,0.0354 -0.70905,-0.026 -1.4228,-0.0194 -2.1249,-0.1019 -1.04441,-0.13046 -2.04868,-0.36478 -3.09499,-0.49122 -0.19982,-0.019 -0.39863,-0.0431 -0.59946,-0.0569 -1.30221,-0.0893 -2.61484,0.003 -3.90425,0.12299 -0.89343,0.0881 -1.78352,0.18921 -2.67695,0.27704 -0.006,6.5e-4 -0.96253,0.0923 -1.08432,0.0881 -0.0868,-0.003 -0.16509,-0.0354 -0.24763,-0.0531 0.26748,-0.11925 0.53133,-0.24201 0.80244,-0.35773 0.12993,-0.0555 0.45004,-0.14555 0.5586,-0.17468 0.54918,-0.14734 1.11504,-0.2666 1.68054,-0.38394 1.09563,-0.20931 2.22958,-0.41566 3.38219,-0.32296 0.32753,0.0518 0.86649,0.12097 0.95015,0.38919 0.0136,0.0435 0.0304,0.10372 -0.0217,0.13236 -0.29293,0.16108 -0.64225,0.27288 -0.96337,0.40932 -0.10659,0.0282 -0.20958,0.0631 -0.31978,0.0846 -1.0554,0.20658 -2.19619,0.10161 -3.27645,0.095 -1.20948,-0.0448 -2.41515,-0.11304 -3.61587,-0.21934 -0.8285,-0.0492 -1.65946,-0.0947 -2.49115,-0.10925 -0.34611,-0.002 -0.71615,-0.0209 -1.05817,0.0269 -0.0766,0.0107 -0.28562,0.0792 -0.22291,0.0486 1.4464,-0.7054 0.61103,-0.2369 0.4857,-0.1652 -0.13291,0.10636 -0.3228,0.30359 -0.48845,0.37759 -0.64465,0.28799 -1.14082,0.50684 -1.88784,0.57183 -0.16894,6.5e-4 -0.33815,0.008 -0.50682,0.002 -1.03584,-0.0385 -2.01895,-0.29278 -3.04559,-0.37319 -0.17801,-0.0122 -0.35516,-0.0326 -0.53405,-0.0365 -0.14619,-0.003 -0.44405,0.11007 -0.43822,0.015 0.008,-0.12425 0.31505,-0.14288 0.45141,-0.23001 0.0733,-0.0468 -0.18377,0.0629 -0.25998,0.10769 -0.18688,0.10992 -0.28088,0.25274 -0.39929,0.39302 -0.17267,0.21878 -0.44777,0.59722 -0.75808,0.74356 -0.365887,0.17254 -0.758714,0.32088 -1.157551,0.45909 -0.12197,0.0423 -0.25915,0.068 -0.39624,0.0794 -0.133747,0.011 -0.269287,-0.009 -0.403937,-0.0133 -0.12988,-0.0308 -0.265417,-0.0528 -0.389637,-0.0923 -0.657667,-0.2088 -1.114034,-0.60408 -1.713401,-0.86642 -0.392347,-0.15011 -0.569907,-0.19131 -1.012704,-0.0849 -0.10491,0.0252 -0.385727,0.13931 -0.30745,0.0874 0.11965,-0.0794 0.29179,-0.11587 0.43769,-0.17381 -1.066174,0.4007 -2.120078,0.85013 -3.311482,1.07862 -0.565037,0.0806 -1.382147,0.2057 -1.803887,-0.15756 -0.0654,-0.0563 -0.0894,-0.12869 -0.13406,-0.19303 10e-4,-0.0779 -0.0192,-0.15702 0.003,-0.23353 0.22492,-0.78009 1.936527,-1.22364 2.892881,-1.49552 0.2495,-0.0523 0.495737,-0.11175 0.748487,-0.15697 1.013444,-0.18131 2.064188,-0.2657 3.112582,-0.28861 0,0 -0.751347,0.35522 -0.751347,0.35522 z"
       inkscape:connector-curvature="0" />
    <ellipse
       style="opacity:1;fill:#ffffff;fill-opacity:1;stroke:#000000;stroke-width:0;stroke-miterlimit:4;stroke-dasharray:none;stroke-opacity:1"
       id="path1373"
       cx="202.10332"
       cy="182.34137"
       rx="12.428033"
       ry="28.865108" />
    <path
       style="opacity:1;fill:#059500;fill-opacity:1;stroke:#000000;stroke-width:0;stroke-miterlimit:4;stroke-dasharray:none;stroke-opacity:1"
       id="path1353"
       d="m 137.5472,153.51205 c -0.46764,3.06271 -0.056,6.19506 0.3349,9.23907 0.44328,2.93473 0.93798,5.88516 1.80878,8.70596 0,0 -1.88369,1.1563 -1.88369,1.1563 v 0 c -0.83392,-2.853 -1.33512,-5.81636 -1.78324,-8.76953 -0.40222,-3.06098 -0.81794,-6.19596 -0.42388,-9.28546 0,0 1.94713,-1.04634 1.94713,-1.04634 z"
       inkscape:connector-curvature="0" />
    <path
       style="opacity:1;fill:#059500;fill-opacity:1;stroke:#000000;stroke-width:0;stroke-miterlimit:4;stroke-dasharray:none;stroke-opacity:1"
       id="path1355"
       d="m 135.69051,155.09657 c 2.04506,2.0537 4.37915,3.70096 6.69063,5.3494 1.95823,1.42963 4.11314,2.5742 5.91576,4.25527 0.0758,-0.0802 0.94474,1.25062 0.76112,0.84522 1.03639,6.13239 -1.50746,0.59611 -2.04054,1.26799 -0.26306,-0.20416 -0.0842,-0.70257 -0.0266,-1.04634 0.22368,-1.55962 1.10853,-2.77875 1.99787,-3.94646 1.10221,-1.34951 2.36086,-2.51741 3.57312,-3.73786 0.37319,-0.34007 0.73884,-0.69178 1.06463,-1.08852 0.66553,-0.31922 1.33105,-0.63846 1.99657,-0.95768 0.006,0.009 0.0917,0.25543 0.0784,0.26227 -0.65436,0.33434 -1.32395,0.63037 -1.98593,0.94555 -0.44786,-0.27679 2.38546,-1.68958 1.6718,-0.98867 0,0 -2.00629,0.9294 -2.00629,0.9294 v 0 c 0.55343,-0.72823 1.98188,-2.24813 2.23224,-1.11343 -0.63223,0.40572 -1.27167,0.79776 -1.89665,1.21714 -0.0158,0.0104 0.0315,0.0575 0.0418,0.0404 0.0132,-0.022 -0.0266,-0.0855 -0.0188,-0.0907 0.61913,-0.41466 1.25777,-0.79198 1.88665,-1.18798 -0.30635,0.42805 -0.6836,0.79062 -1.07012,1.12492 -1.21296,1.22201 -2.47998,2.37984 -3.59695,3.71615 -0.87881,1.12715 -1.78778,2.29784 -2.02496,3.81785 -0.0202,0.14501 -0.16005,1.02253 -0.22242,0.62363 -0.002,-0.0117 0.0207,0.004 0.0311,0.006 0.98838,0.25377 -0.19515,2.51438 -1.40152,1.693 -0.28915,-0.35492 -0.53545,-0.75146 -0.86787,-1.06286 -1.78805,-1.67612 -3.91901,-2.83336 -5.86528,-4.2547 -2.32931,-1.66038 -4.67638,-3.32242 -6.75824,-5.36278 0,0 1.84059,-1.25678 1.84059,-1.25678 z"
       inkscape:connector-curvature="0" />
    <path
       style="opacity:1;fill:#059500;fill-opacity:1;stroke:#000000;stroke-width:0;stroke-miterlimit:4;stroke-dasharray:none;stroke-opacity:1"
       id="path1357"
       d="m 154.90521,156.63356 c 1.59589,1.12639 3.24536,2.15045 4.90618,3.15183 1.85597,1.16459 3.75935,2.23769 5.74668,3.09535 0.60633,0.23003 1.21241,0.43916 1.80092,0.72064 0.56102,0.35902 1.19941,0.48575 1.77063,0.81906 0.0584,-0.0465 0.37243,0.33236 0.40651,0.30672 0.0439,-0.033 0.027,-0.1175 0.0587,-0.16482 -0.57831,0.36144 -1.14551,0.74588 -1.7349,1.0843 -0.0905,0.052 0.10149,-0.19905 0.12891,-0.30819 0.0879,-0.35017 0.18987,-0.65414 0.32417,-0.98926 0.78628,-1.61244 1.77639,-3.07553 2.82226,-4.48675 1.51614,-1.73797 3.41082,-3.0853 5.44991,-3.93196 0.41203,-0.12151 0.84038,-0.2712 1.27261,-0.2409 0.13794,0.0206 0.15428,0.16034 0.20025,0.2894 -0.03,0.0583 -0.20972,-0.26023 -0.0512,-0.25819 0,0 -1.75663,1.42562 -1.75663,1.42562 v 0 c -0.11656,0.005 -0.2939,-0.33052 -0.20879,-0.25976 0.0287,0.0513 0.1883,0.22604 0.0592,0.22614 -0.41458,0.0352 -0.82049,0.14806 -1.21228,0.30098 -0.32615,0.1459 -1.2556,0.69503 -0.96333,0.47754 0.39564,-0.29439 0.80292,-0.57342 1.23073,-0.80531 0.24093,-0.13058 -0.45122,0.32275 -0.66696,0.49976 -0.67464,0.55349 -0.77208,0.69707 -1.3869,1.34529 -1.04495,1.39219 -2.02441,2.83493 -2.8248,4.42034 -0.82901,1.91298 0.33152,0.96835 -2.37667,2.72544 -0.21745,0.0215 -0.38344,-0.25286 -0.58094,-0.33144 -0.57063,-0.31434 -1.20328,-0.45482 -1.761,-0.80462 -0.5872,-0.26727 -1.18972,-0.4803 -1.78393,-0.72747 -1.97932,-0.8893 -3.88217,-1.96991 -5.74315,-3.13191 -1.66832,-1.00279 -3.32104,-2.03496 -4.94004,-3.13402 0,0 1.81387,-1.31381 1.81387,-1.31381 z"
       inkscape:connector-curvature="0" />
    <path
       style="opacity:1;fill:#059500;fill-opacity:1;stroke:#000000;stroke-width:0;stroke-miterlimit:4;stroke-dasharray:none;stroke-opacity:1"
       id="path1359"
       d="m 180.43556,157.86643 c 1.60946,2.32717 2.34319,5.22777 3.06787,8.00806 0.31711,1.20235 0.50713,2.43846 0.75826,3.65778 0.009,0.046 0.19362,0.89712 0.28009,1.04712 0.0277,0.0479 0.0932,0.0472 0.13983,0.0707 0.85084,-1.03068 -2.2612,1.69562 -1.22948,0.49474 0,0 1.99264,-0.93387 1.99264,-0.93387 v 0 c -0.64541,0.85518 -1.54886,1.8428 -2.59192,1.73433 -0.35359,-0.35341 -0.3772,-0.76572 -0.47912,-1.28823 -0.23774,-1.21867 -0.41409,-2.45361 -0.72827,-3.6534 -0.70606,-2.74006 -1.42472,-5.61909 -3.0505,-7.88052 0,0 1.8406,-1.25678 1.8406,-1.25678 z"
       inkscape:connector-curvature="0" />
    <path
       style="opacity:1;fill:#059500;fill-opacity:1;stroke:#000000;stroke-width:0;stroke-miterlimit:4;stroke-dasharray:none;stroke-opacity:1"
       id="path1361"
       d="m 139.74673,172.55086 c 3.88846,1.47284 7.99418,2.00451 12.04868,2.57208 8.56995,0.91929 17.19415,0.93372 25.79514,0.81405 2.53687,-0.006 5.06682,-0.13245 7.59067,-0.40458 0,0 -1.69396,1.39726 -1.69396,1.39726 v 0 c -2.50588,0.22968 -5.01625,0.33324 -7.53152,0.3338 -8.61141,0.0882 -17.24456,0.0732 -25.82591,-0.82685 -4.09765,-0.55941 -8.25003,-1.08079 -12.18281,-2.55322 0,0 1.79971,-1.33254 1.79971,-1.33254 z"
       inkscape:connector-curvature="0" />
    <path
       style="opacity:1;fill:#059500;fill-opacity:1;stroke:#000000;stroke-width:0;stroke-miterlimit:4;stroke-dasharray:none;stroke-opacity:1"
       id="path1363"
       d="m 144.7339,174.43218 c -1.43209,1.96135 -2.81824,4.00288 -3.79486,6.30004 -0.28426,0.66864 -0.50154,1.37014 -0.75231,2.05523 -0.17252,0.76565 -0.40769,1.51711 -0.51753,2.29699 -0.36334,2.57976 -0.0829,5.29312 0.85625,7.69372 0.94051,2.40405 1.61895,3.01419 3.12443,5.03718 0.76107,0.75494 1.47764,1.56954 2.28318,2.26483 3.47332,2.99795 7.75908,5.06011 12.11382,5.75314 1.12683,0.17932 2.27108,0.17546 3.40663,0.2632 1.15441,-0.10986 2.32037,-0.1175 3.46324,-0.32967 3.57269,-0.6633 7.10967,-2.28198 10.12633,-4.50559 0.43497,-0.32062 0.75496,-0.80196 1.13213,-1.2033 0.79331,-0.84416 1.58622,-1.68881 2.37937,-2.53322 0.59139,-0.86087 1.25681,-1.6645 1.77424,-2.58264 1.18468,-2.1021 1.93899,-4.65255 1.53397,-7.1515 -0.25417,-1.56819 -0.7298,-2.20326 -1.43185,-3.51341 0,0 1.82589,-1.17793 1.82589,-1.17793 v 0 c 0.71261,1.34505 1.20324,2.01856 1.4703,3.62095 0.42481,2.54854 -0.30952,5.15448 -1.5054,7.31455 -0.51579,0.93165 -1.1834,1.74768 -1.7751,2.62152 -0.79267,0.85531 -1.50562,1.81317 -2.37805,2.56594 -1.46395,1.26317 -3.03417,2.36912 -4.60579,3.45993 -3.11309,2.16069 -6.54611,3.7908 -10.18589,4.43515 -1.1503,0.20363 -2.32241,0.20192 -3.48361,0.30289 -1.14171,-0.0964 -2.29264,-0.10144 -3.42516,-0.28921 -4.38112,-0.72651 -8.68679,-2.82021 -12.18118,-5.84303 -0.81324,-0.70349 -1.53711,-1.52664 -2.30566,-2.28997 -1.52957,-2.05255 -2.214,-2.66898 -3.17731,-5.1059 -0.96044,-2.42961 -1.26493,-5.17976 -0.92088,-7.79975 0.10347,-0.78832 0.33339,-1.54954 0.50008,-2.32432 0.24588,-0.69245 0.45734,-1.40134 0.73764,-2.07737 0.95431,-2.30157 2.32486,-4.34116 3.72333,-6.32276 0,0 1.98975,-0.93569 1.98975,-0.93569 z"
       inkscape:connector-curvature="0" />
    <path
       style="opacity:1;fill:#059500;fill-opacity:1;stroke:#000000;stroke-width:0;stroke-miterlimit:4;stroke-dasharray:none;stroke-opacity:1"
       id="path1365"
       d="m 149.96357,181.70685 c 0.22667,-0.34728 0.30825,-0.54165 0.6696,-0.76927 2.14935,-1.35393 2.47616,-1.84268 4.5516,-1.13338 0.70572,0.37393 1.49655,1.19817 0.85998,2.11217 -0.61447,0.88229 -3.28359,2.11611 -3.4298,2.1998 -1.37875,0.41965 -2.81115,0.48896 -4.23228,0.42077 -0.58263,-0.028 -1.66513,-0.12812 -2.26909,-0.32938 -0.17718,-0.0591 -0.32892,-0.18853 -0.49337,-0.28279 -0.0258,-0.12139 -0.0516,-0.24287 -0.0774,-0.3643 0,0 1.92321,-1.11023 1.92321,-1.11023 v 0 c -0.0152,0.0516 -0.0306,0.10312 -0.0459,0.15473 0.14836,0.0797 0.28641,0.18979 0.44506,0.23896 1.4972,0.46397 3.63661,0.41585 5.15193,0.14095 0.43153,-0.0782 0.8507,-0.22543 1.27605,-0.33815 -0.28779,0.24947 -0.61549,0.45046 -0.86336,0.74841 -0.29308,0.35229 0.84126,-0.51555 0.94728,-0.98117 0.14955,-0.65678 -0.57644,-1.04552 -0.96357,-1.25861 -0.60229,-0.17985 -0.77061,-0.28432 -1.40372,-0.25629 -0.2231,0.0104 -0.80418,0.3034 -0.66236,0.11128 0.32801,-0.44444 0.85825,-0.64022 1.2881,-0.95913 0.14385,-0.10675 -0.29679,0.2 -0.43007,0.32257 -0.10336,0.0951 -0.18365,0.21751 -0.27547,0.32626 0,0 -1.96638,1.00684 -1.96638,1.00684 z"
       inkscape:connector-curvature="0" />
    <path
       style="opacity:1;fill:#059500;fill-opacity:1;stroke:#000000;stroke-width:0;stroke-miterlimit:4;stroke-dasharray:none;stroke-opacity:1"
       id="path1367"
       d="m 160.87147,181.69416 c 0.34035,-0.45512 0.44646,-0.66087 0.94516,-0.99612 0.87284,-0.58675 1.75125,-1.16882 2.66821,-1.66505 1.0069,-0.54489 2.38225,-0.56615 3.47099,-0.63047 1.09714,0.1127 3.00827,0.26092 3.35323,1.79513 0.0672,0.29869 0.0579,0.63228 -0.033,0.92303 -0.11324,0.3617 -0.37208,0.64425 -0.55812,0.96637 -3.07475,2.87591 -5.97584,3.47852 -9.74876,3.82755 0,0 1.6959,-1.39775 1.6959,-1.39775 v 0 c 1.42877,-0.14079 2.1126,-0.15849 3.54952,-0.51946 0.5998,-0.15069 1.16128,-0.5062 1.774,-0.56312 0.16176,-0.015 -0.44834,0.50266 -0.30121,0.42627 0.39352,-0.20432 0.71396,-0.55062 1.07094,-0.82592 0.37743,-0.53393 0.82924,-0.87772 0.69392,-1.63879 -0.24452,-1.37524 -2.28311,-1.52784 -3.20915,-1.58877 -1.00071,0.0777 -1.42491,0.0591 -2.39417,0.33329 -0.35161,0.0995 -0.98515,0.78353 -1.03262,0.38281 -0.0515,-0.43466 0.64512,-0.50668 0.9939,-0.70961 0.37116,-0.21596 -1.20985,0.84872 -0.9627,0.89916 0,0 -1.97597,0.98145 -1.97597,0.98145 z"
       inkscape:connector-curvature="0" />
    <path
       style="opacity:1;fill:#059500;fill-opacity:1;stroke:#000000;stroke-width:0;stroke-miterlimit:4;stroke-dasharray:none;stroke-opacity:1"
       id="path1371"
       d="m 164.094,196.83869 c -3.13921,0.3391 -6.27287,0.7426 -9.40336,1.16934 -2.03541,0.27804 -1.07084,0.14322 -2.89391,0.40272 0,0 1.70319,-1.41525 1.70319,-1.41525 v 0 c 1.81178,-0.24704 0.85226,-0.1171 2.87861,-0.38893 3.14476,-0.422 6.29224,-0.81822 9.44018,-1.20946 0,0 -1.72471,1.44158 -1.72471,1.44158 z"
       inkscape:connector-curvature="0" />
    <g
       id="g1464"
       transform="matrix(0.68506874,0,0,0.76031969,64.559936,43.266629)"
       style="fill:#676767;fill-opacity:1">
      <path
         inkscape:connector-curvature="0"
         d="m 201.84311,163.7868 c 0.32509,1.91172 1.16373,3.66339 2.11227,5.33469 0.96476,1.53069 2.14059,2.94847 3.73895,3.84553 0.25791,0.14475 0.53296,0.25658 0.79944,0.38487 1.6912,0.67214 3.47959,0.52863 5.22072,0.17241 -0.21194,0.62243 1.86919,-1.11323 1.5936,-0.61499 -0.15175,0.27436 -0.58576,0.64151 -0.82922,0.44395 -0.22847,-0.18538 0.46363,-0.36421 0.67403,-0.56987 0.50303,-0.49171 0.63482,-0.73191 1.02312,-1.28841 0,0 1.68725,-0.73593 1.68725,-0.73593 v 0 c -0.38252,0.57151 -0.51554,0.82102 -1.00923,1.333 -1.22734,1.27279 -2.92426,2.06128 -4.60409,2.54045 -1.77269,0.33567 -3.58537,0.44251 -5.28912,-0.27033 -0.26988,-0.13483 -0.54846,-0.2535 -0.80964,-0.40449 -1.60871,-0.93002 -2.79673,-2.37281 -3.77498,-3.92585 -0.95968,-1.68515 -1.80989,-3.44754 -2.17176,-5.36893 0,0 1.63866,-0.8761 1.63866,-0.8761 z"
         id="path1434"
         style="opacity:1;fill:#676767;fill-opacity:1;stroke:#000000;stroke-width:0;stroke-miterlimit:4;stroke-dasharray:none;stroke-opacity:1" />
      <path
         inkscape:connector-curvature="0"
         d="m 199.6701,172.10201 c -0.2525,1.80817 -0.4509,3.6224 -0.59824,5.44207 -0.0658,0.86872 -0.11269,1.73868 -0.15329,2.60888 0,0 -1.65812,0.83346 -1.65812,0.83346 v 0 c 0.0549,-0.87502 0.10564,-1.75034 0.17364,-2.6245 0.14768,-1.8155 0.34011,-3.62614 0.57188,-5.43278 0,0 1.66413,-0.82713 1.66413,-0.82713 z"
         id="path1436"
         style="opacity:1;fill:#676767;fill-opacity:1;stroke:#000000;stroke-width:0;stroke-miterlimit:4;stroke-dasharray:none;stroke-opacity:1" />
      <path
         inkscape:connector-curvature="0"
         d="m 211.51885,175.29928 c 0.35843,-0.20284 0.68027,-0.492 1.07529,-0.60854 0.28979,-0.0855 -0.50419,0.3335 -0.74798,0.51198 -0.31625,0.23152 -0.62391,0.47463 -0.9315,0.71754 -1.15004,0.90817 -2.26004,1.86444 -3.37703,2.8125 -1.61687,1.43862 -3.32976,2.76806 -4.89667,4.26223 -0.26852,0.24975 -0.48122,0.52804 -0.6436,0.85348 0,0 -1.69118,0.7759 -1.69118,0.7759 v 0 c 0.13827,-0.36224 0.34085,-0.657 0.62705,-0.92649 1.57213,-1.50721 3.29994,-2.8376 4.92545,-4.28561 2.25278,-1.91466 4.44379,-3.94194 7.11244,-5.27467 0,0 -1.45227,1.16168 -1.45227,1.16168 z"
         id="path1438"
         style="opacity:1;fill:#676767;fill-opacity:1;stroke:#000000;stroke-width:0;stroke-miterlimit:4;stroke-dasharray:none;stroke-opacity:1" />
      <path
         inkscape:connector-curvature="0"
         d="m 198.53216,179.30021 c 1.40668,0.91909 2.95643,1.56403 4.50601,2.19524 0.6767,0.29412 1.38635,0.49447 2.09112,0.70636 0,0 -1.5291,1.04231 -1.5291,1.04231 v 0 c -0.70144,-0.22343 -1.40691,-0.43764 -2.08365,-0.73089 -1.55955,-0.63913 -3.11315,-1.29858 -4.54455,-2.19884 0,0 1.56017,-1.01418 1.56017,-1.01418 z"
         id="path1440"
         style="opacity:1;fill:#676767;fill-opacity:1;stroke:#000000;stroke-width:0;stroke-miterlimit:4;stroke-dasharray:none;stroke-opacity:1" />
      <path
         inkscape:connector-curvature="0"
         d="m 196.95302,184.48003 c 1.23191,1.08755 2.64154,1.95051 4.0829,2.72928 0.53605,0.29498 1.10066,0.52858 1.66814,0.75397 0,0 -1.53938,1.02997 -1.53938,1.02997 v 0 c -0.56648,-0.23609 -1.13013,-0.47985 -1.66676,-0.77977 -1.44909,-0.79666 -2.86654,-1.6697 -4.12229,-2.75232 0,0 1.57739,-0.98113 1.57739,-0.98113 z"
         id="path1442"
         style="opacity:1;fill:#676767;fill-opacity:1;stroke:#000000;stroke-width:0;stroke-miterlimit:4;stroke-dasharray:none;stroke-opacity:1" />
      <path
         inkscape:connector-curvature="0"
         d="m 202.08299,187.78738 c -0.13619,1.70737 -0.70968,3.35155 -1.22973,4.9726 -0.83989,2.45749 -1.54473,4.95253 -2.06169,7.49746 -0.0556,0.31831 -0.11953,0.63527 -0.16668,0.95493 -0.0949,0.64334 -0.0314,1.4707 -0.22626,2.08117 0,0 -1.70478,0.75916 -1.70478,0.75916 v 0 c 0.15743,-0.14994 0.14245,-0.4896 0.15875,-0.68595 0.0644,-0.77532 0.10542,-1.55343 0.29541,-2.313 0.5194,-2.55 1.21755,-5.05286 2.05583,-7.51681 0.51225,-1.59946 1.07505,-3.22238 1.22107,-4.90473 0,0 1.65808,-0.84483 1.65808,-0.84483 z"
         id="path1444"
         style="opacity:1;fill:#676767;fill-opacity:1;stroke:#000000;stroke-width:0;stroke-miterlimit:4;stroke-dasharray:none;stroke-opacity:1" />
      <path
         inkscape:connector-curvature="0"
         d="m 197.15816,185.74573 c -1.17451,2.28528 -2.48187,4.49494 -3.64229,6.78833 -1.19893,2.4281 -2.2201,4.93775 -3.19877,7.46078 -0.20469,0.57484 -0.43132,1.14129 -0.66185,1.70609 0,0 -1.68234,0.77536 -1.68234,0.77536 v 0 c 0.23878,-0.56498 0.47426,-1.13153 0.67931,-1.70992 0.99696,-2.52788 2.02139,-5.04784 3.21926,-7.48892 1.14454,-2.28219 2.42927,-4.48446 3.6008,-6.75202 0,0 1.68588,-0.7797 1.68588,-0.7797 z"
         id="path1446"
         style="opacity:1;fill:#676767;fill-opacity:1;stroke:#000000;stroke-width:0;stroke-miterlimit:4;stroke-dasharray:none;stroke-opacity:1" />
      <path
         inkscape:connector-curvature="0"
         d="m 189.41685,200.58818 c 1.26138,0.40426 2.52824,0.78471 3.8034,1.14268 1.00523,0.30837 2.05976,0.48173 3.02554,0.90646 0.18338,0.11719 0.11455,0.0604 0.21839,0.15479 0,0 -1.58571,0.98834 -1.58571,0.98834 v 0 c -0.0803,-0.0628 -0.0232,-0.0208 -0.18052,-0.11246 -0.96022,-0.40899 -2.00182,-0.58801 -2.99563,-0.89654 -1.27956,-0.35928 -2.5487,-0.74937 -3.82157,-1.13127 0,0 1.5361,-1.052 1.5361,-1.052 z"
         id="path1448"
         style="opacity:1;fill:#676767;fill-opacity:1;stroke:#000000;stroke-width:0;stroke-miterlimit:4;stroke-dasharray:none;stroke-opacity:1" />
      <path
         inkscape:connector-curvature="0"
         d="m 192.03609,207.00899 c -0.86175,0.62525 -1.63945,1.34729 -2.34777,2.14006 -0.66164,0.83986 -0.7125,0.63162 -2.12095,1.12806 0,0 1.69465,-0.77602 1.69465,-0.77602 v 0 c -2.8637,1.45402 -1.90318,1.18318 -1.28089,0.36738 0.70016,-0.7995 1.46034,-1.54537 2.3291,-2.16287 0,0 1.72586,-0.69661 1.72586,-0.69661 z"
         id="path1450"
         style="opacity:1;fill:#676767;fill-opacity:1;stroke:#000000;stroke-width:0;stroke-miterlimit:4;stroke-dasharray:none;stroke-opacity:1" />
      <path
         inkscape:connector-curvature="0"
         d="m 196.68314,173.68814 c 0.01,-0.55169 -0.0316,-1.11365 0.10369,-1.65522 0.0804,-0.32173 0.22368,-0.62862 0.3509,-0.93251 0.59457,-1.08098 1.08506,-2.20425 1.39903,-3.39741 0.24912,-1.25015 0.0248,-2.49711 -0.22518,-3.7259 -0.12473,-0.54622 -0.29102,-1.08109 -0.45976,-1.61482 0,0 1.62466,-0.8907 1.62466,-0.8907 v 0 c 0.16673,0.54121 0.33118,1.08337 0.46176,1.63477 0.25937,1.25205 0.49196,2.52148 0.26532,3.79942 -0.30025,1.20196 -0.77012,2.34424 -1.38454,3.42166 -0.0818,0.18847 -0.30375,0.67943 -0.36535,0.89334 -0.15191,0.52749 -0.11113,1.08174 -0.11245,1.62253 0,0 -1.65808,0.84484 -1.65808,0.84484 z"
         id="path1452"
         style="opacity:1;fill:#676767;fill-opacity:1;stroke:#000000;stroke-width:0;stroke-miterlimit:4;stroke-dasharray:none;stroke-opacity:1" />
    </g>
  </g>
</svg>
